<svg id="Layer_1" data-name="Layer 1" xmlns="http://www.w3.org/2000/svg" viewBox="0 0 487 361"><defs><style>.cls-1,.cls-3{fill:none;}.cls-1,.cls-2,.cls-3{stroke:#000;stroke-miterlimit:10;}.cls-1{stroke-width:15px;}.cls-2{stroke-width:6.62px;}.cls-3{stroke-width:16.11px;}</style></defs><path d="M838,356.85A34.21,34.21,0,0,1,872.15,391V658A34.21,34.21,0,0,1,838,692.15H445A34.21,34.21,0,0,1,410.85,658V391A34.21,34.21,0,0,1,445,356.85H838M838,344H445a47,47,0,0,0-47,47V658a47,47,0,0,0,47,47H838a47,47,0,0,0,47-47V391a47,47,0,0,0-47-47Z" transform="translate(-398 -344)"/><line class="cls-1" x1="5.5" y1="102.5" x2="480.5" y2="102.5"/><rect class="cls-2" x="43.5" y="50.5" width="15" height="15"/><rect class="cls-2" x="87.5" y="50.5" width="15" height="15"/><rect class="cls-2" x="130.5" y="50.5" width="15" height="15"/><line class="cls-1" x1="242.5" y1="311.5" x2="433.5" y2="312.5"/><polyline class="cls-3" points="71 312 166.18 226.59 71 144"/></svg>